Coordinates
version=1
nRows=19
nColumns=36
inDegrees=yes

Units are S.I. units (second, meters, Newtons, ...)
If the header above contains a line with 'inDegrees', this indicates whether rotational values are in degrees (yes) or radians (no).

endheader
time	pelvis_tilt	pelvis_list	pelvis_rotation	pelvis_tx	pelvis_ty	pelvis_tz	hip_flexion_r	hip_adduction_r	hip_rotation_r	knee_angle_r	knee_angle_r_beta	ankle_angle_r	subtalar_angle_r	mtp_angle_r	hip_flexion_l	hip_adduction_l	hip_rotation_l	knee_angle_l	knee_angle_l_beta	ankle_angle_l	subtalar_angle_l	mtp_angle_l	lumbar_extension	lumbar_bending	lumbar_rotation	arm_flex_r	arm_add_r	arm_rot_r	elbow_flex_r	pro_sup_r	arm_flex_l	arm_add_l	arm_rot_l	elbow_flex_l	pro_sup_l
      1.46666670	      2.10635973	     -2.06050465	      0.45827226	     -0.05220817	      1.25461617	      0.14473811	     -0.24850673	      1.71419844	      1.48267675	      0.85897540	      0.01499195	     11.87779692	     -7.21885648	     -7.49999987	     -0.68769781	     -5.59869838	    -13.39943372	      2.07323109	      0.03618471	     14.25273010	      6.99154554	     -7.49999987	      3.22702790	      6.56011846	     -2.32049452	      6.60003561	     -7.81650836	     37.38366912	     19.76961436	     76.75870830	     26.46680802	     -1.10886432	     22.67851799	    146.60539116	     78.53832436
      1.48333330	      2.03634265	     -2.02704145	      0.64387163	     -0.05033203	      1.25858933	      0.14406142	     -0.38286925	      1.67774769	      1.43483968	      0.76875104	      0.01341724	     11.72609032	     -7.31258285	     -7.49999987	     -0.69900298	     -5.64808215	    -12.97620074	      2.13175190	      0.03720609	     13.81072225	      6.12633567	     -7.49999987	      3.81415357	      6.61801165	     -3.13091581	      6.63999120	     -7.93151378	     40.55408443	     18.11720874	     77.26912743	     25.36387723	     -1.44188767	     22.41079076	    146.86919632	     83.04399818
      1.50000000	      2.15337904	     -1.99591245	      0.71771772	     -0.04938669	      1.25380831	      0.14359336	     -0.69020024	      1.63521352	      1.39651843	      0.71558402	      0.01248930	     11.78980675	     -7.36105170	     -7.49999987	     -0.93532063	     -5.68098477	    -13.06796881	      2.19699594	      0.03834481	     13.87533631	      6.01719856	     -7.49999987	      3.98086871	      6.63246173	     -3.25380681	      6.05980628	     -8.25386417	     40.58792652	     17.83611347	     77.28679903	     25.08640783	     -1.47612995	     22.47882591	    146.90283340	     83.05042363
      1.51666670	      2.29038068	     -1.95251106	      0.83085497	     -0.04770261	      1.25948248	      0.14530656	     -1.04000853	      1.59571261	      1.37899632	      0.65530407	      0.01143721	     11.80102498	     -7.34953540	     -7.49999987	     -1.17515853	     -5.71372256	    -13.20286843	      2.23247362	      0.03896402	     13.80122160	      5.92596838	     -7.49999987	      4.09666628	      6.60529218	     -3.40213878	      5.50835846	     -8.49728909	     40.63612212	     17.49967032	     77.30260582	     24.73952881	     -1.57350652	     22.56200993	    146.89460755	     83.06166592
      1.53333330	      2.54910038	     -1.89614284	      0.90773492	     -0.04745025	      1.26158990	      0.14612521	     -1.54125774	      1.54610096	      1.26540226	      0.55868099	      0.00975082	     11.79521069	     -7.26972087	     -7.49999987	     -1.63866725	     -5.69286191	    -13.27849533	      2.06401766	      0.03602390	     13.58816688	      5.75643887	     -7.49999987	      4.10306701	      6.52356000	     -4.00606981	      5.90696468	     -8.33964543	     44.71707556	     15.22736737	     76.14558953	     24.06177342	     -1.97863798	     22.34519453	    146.81891206	     82.66903223
      1.55000000	      2.77188229	     -1.85561674	      1.00023246	     -0.04851496	      1.25942212	      0.14593218	     -1.89527039	      1.54051232	      1.08290255	      0.50763815	      0.00885996	     11.98697693	     -7.02003029	     -7.49999987	     -1.95207560	     -5.69210147	    -13.39274438	      2.02730392	      0.03538313	     13.56205640	      5.58623579	     -7.49999987	      3.92512771	      6.45703147	     -4.17303648	      5.67966190	     -8.45757443	     44.93192688	     14.80333240	     75.27768618	     23.94417438	     -2.05300849	     22.31382182	    146.72351800	     82.57260956
      1.56666670	      2.92966067	     -1.81442607	      1.05718762	     -0.04951169	      1.26239874	      0.14675677	     -2.17157581	      1.52228837	      0.99494433	      0.46928631	      0.00819059	     11.92929550	     -7.14749712	     -7.49999987	     -2.14731620	     -5.70551941	    -13.54667379	      1.97974212	      0.03455302	     13.38309870	      5.58796818	     -7.49999987	      3.80191813	      6.41611985	     -4.46320055	      5.84320763	     -8.42907722	     47.23591139	     13.66697817	     74.42292013	     23.73474905	     -2.32581879	     22.20442780	    146.67936220	     83.32161262
      1.58333330	      3.00463399	     -1.75585416	      1.12231935	     -0.05131925	      1.25947125	      0.14613653	     -2.25356977	      1.48648430	      0.79967122	      0.44434429	      0.00775527	     12.03828931	     -6.99213053	     -7.49999987	     -2.21534034	     -5.66407342	    -13.72710815	      1.95574715	      0.03413423	     13.40759780	      5.51399893	     -7.49999987	      3.63311656	      6.34532075	     -4.46696503	      5.70207039	     -8.50451539	     46.76112592	     13.45392682	     73.26135346	     23.83991377	     -2.51737148	     22.43500561	    146.55947184	     82.17842613
      1.60000000	      3.21646284	     -1.70871401	      1.23569635	     -0.05188862	      1.26314694	      0.14641595	     -2.46310737	      1.45927339	      0.71675022	      0.41378704	      0.00722195	     12.04518426	     -6.95918228	     -7.49999987	     -2.38763839	     -5.64059851	    -13.85882088	      1.92303708	      0.03356333	     13.23164424	      5.56078413	     -7.49999987	      3.30465074	      6.36580681	     -4.76201498	      6.13490781	     -8.56133075	     49.94587185	     12.52581418	     73.32915403	     23.68907613	     -2.68958975	     21.97741036	    146.47555553	     84.06340102
      1.61666670	      3.36754714	     -1.64934703	      1.33900590	     -0.05216067	      1.26389791	      0.14678512	     -2.58254253	      1.41908876	      0.58486642	      0.39167689	      0.00683605	     12.08248324	     -6.80858506	     -7.49999987	     -2.48984228	     -5.59522222	    -13.86169190	      1.88405377	      0.03288294	     13.04952636	      5.46802037	     -7.49999987	      3.03297354	      6.26788609	     -4.88097057	      6.22053663	     -8.53552059	     51.56788919	     11.92245581	     71.40565764	     23.73009066	     -2.85637312	     21.92307876	    146.36757097	     83.78573825
      1.63333330	      3.52285034	     -1.63050768	      1.46658081	     -0.05175450	      1.26308001	      0.14681346	     -2.70344812	      1.43139716	      0.50072327	      0.37412722	      0.00652975	     12.16880360	     -6.67261560	     -7.49999987	     -2.59258627	     -5.58815330	    -13.94910325	      1.83608113	      0.03204566	     12.96834165	      5.47548891	     -7.49999987	      2.75375520	      6.26835713	     -5.03020196	      6.14460909	     -8.57430224	     51.70238895	     11.65212424	     71.21846544	     23.71813355	     -3.02246520	     21.85639080	    146.31091641	     83.77295874
      1.65000000	      3.81343878	     -1.61710914	      1.57989342	     -0.05238544	      1.26264251	      0.14620187	     -2.99269322	      1.42533537	      0.35737483	      0.36084359	      0.00629791	     12.16161425	     -6.56799755	     -7.49999987	     -2.83866695	     -5.58891956	    -14.03174309	      1.79005535	      0.03124236	     12.91162637	      5.48872081	     -7.49999987	      2.33671680	      6.25642920	     -4.99884948	      6.14275135	     -8.62807442	     52.48862741	     11.44754969	     70.36285014	     23.87475034	     -2.97878442	     21.61368540	    146.17826047	     83.19295511
      1.66666670	      3.85357444	     -1.56813297	      1.60382968	     -0.05256266	      1.26230563	      0.14642065	     -2.99327387	      1.39074284	      0.17329488	      0.36018918	      0.00628649	     12.32662554	     -6.26331816	     -7.49999987	     -2.84180173	     -5.53150991	    -14.28863463	      1.75352464	      0.03060478	     13.05159781	      5.93379958	     -7.49999987	      2.26357375	      6.21769685	     -5.11506103	      6.19698478	     -8.61857152	     54.48032543	     11.02490297	     69.36618456	     23.78169838	     -3.15729457	     21.46355498	    146.21885456	     83.42286130
      1.68333330	      3.87498973	     -1.58069018	      1.74175960	     -0.05336509	      1.26131413	      0.14630649	     -2.93563429	      1.43071075	      0.12684756	      0.36290290	      0.00633385	     12.27023410	     -6.23161806	     -7.49999987	     -2.80446900	     -5.52646068	    -14.14012924	      1.81450221	      0.03166904	     13.10462455	      5.91354308	     -7.49999987	      2.28129042	      6.24718435	     -5.10008572	      6.22666718	     -8.51381266	     56.48563802	     10.42749209	     67.97759411	     23.81162099	     -3.03137756	     21.22056264	    146.16320780	     84.28064987
      1.70000000	      4.07325116	     -1.52114015	      1.87226598	     -0.05291046	      1.26173987	      0.14625213	     -3.13989276	      1.37572575	      0.02235626	      0.36554742	      0.00638001	     12.23889442	     -6.23684174	     -7.49999987	     -2.98187274	     -5.45194978	    -14.16416838	      1.79817370	      0.03138405	     13.14593778	      6.00245269	     -7.49999987	      1.97468285	      6.18236847	     -5.12640608	      6.18587109	     -8.53984610	     56.92871092	     10.45565372	     67.39290804	     23.86578686	     -3.19148343	     20.91675470	    146.06752748	     84.21955404
      1.71666670	      4.14261230	     -1.50815345	      1.96972140	     -0.05395695	      1.26133657	      0.14542600	     -3.18917764	      1.34503146	     -0.12690126	      0.38044235	      0.00663997	     12.14500963	     -6.21995070	     -7.49999987	     -3.00026102	     -5.41526847	    -14.22281016	      1.83727280	      0.03206646	     13.27709465	      6.12882532	     -7.49999987	      1.80956531	      6.14766329	     -5.09685824	      6.12691456	     -8.51033087	     57.36316427	     10.41822854	     66.79468583	     23.86132227	     -3.19478265	     20.77166459	    145.98993846	     83.59610429
      1.73333330	      4.12735166	     -1.45110635	      2.16492378	     -0.05377601	      1.25987765	      0.14537283	     -3.10521818	      1.29312854	     -0.32816735	      0.38978210	      0.00680298	     12.17441628	     -5.99164601	     -7.49999987	     -2.94028837	     -5.34929965	    -14.22686874	      1.95802447	      0.03417397	     13.27410543	      6.01608385	     -7.49999987	      1.81590325	      6.10174268	     -4.95516675	      5.96566813	     -8.45288504	     57.17788449	     10.35419957	     66.46608087	     23.90540600	     -3.17958497	     20.86991476	    145.95507123	     82.99647729
      1.75000000	      4.22329996	     -1.40118288	      2.24912774	     -0.05409643	      1.25955401	      0.14434187	     -3.18558470	      1.20891098	     -0.21484263	      0.40737359	      0.00711001	     12.02388331	     -6.27169509	     -7.49999987	     -3.00366741	     -5.30134872	    -14.33202363	      2.04805355	      0.03574528	     13.35127684	      5.99259360	     -7.49999987	      1.66384956	      6.01488026	     -4.98835958	      6.02022246	     -8.44804855	     58.24102192	     10.38802701	     66.29417636	     23.78845026	     -3.32669521	     20.50427223	    145.82248340	     83.55617086
      1.76666670	      4.26971929	     -1.36211558	      2.33875785	     -0.05533852	      1.26318230	      0.14468334	     -3.19691597	      1.15301134	     -0.39988458	      0.43103588	      0.00752300	     12.05700586	     -6.12621889	     -7.49999987	     -2.98650318	     -5.23447218	    -14.11728148	      2.06990244	      0.03612661	     13.30871688	      6.06102043	     -7.49999987	      1.44515898	      5.97163088	     -5.08264307	      6.17611260	     -8.37678804	     59.08924903	     10.38847866	     66.20793134	     23.54687409	     -3.52691012	     20.31699276	    145.83430553	     84.83094523
